<svg height="140" viewBox="0 0 740 1008" fill="none" xmlns="http://www.w3.org/2000/svg">
<path d="M290.54 864.37H298.496V973H292.07L290.999 966.268H290.693C288.551 968.614 285.848 970.552 282.584 972.082C279.32 973.51 275.087 974.224 269.885 974.224C266.009 974.224 262.184 973.51 258.41 972.082C254.738 970.552 251.372 968.257 248.312 965.197C245.354 962.137 242.957 958.312 241.121 953.722C239.285 949.03 238.367 943.522 238.367 937.198C238.367 931.588 239.081 926.488 240.509 921.898C242.039 917.308 244.232 913.432 247.088 910.27C249.944 907.006 253.361 904.507 257.339 902.773C261.419 901.039 266.009 900.172 271.109 900.172C278.861 900.172 285.338 902.467 290.54 907.057V864.37ZM290.54 915.166C288.5 912.514 285.797 910.423 282.431 908.893C279.065 907.363 275.75 906.598 272.486 906.598C269.12 906.598 265.856 907.159 262.694 908.281C259.634 909.301 256.88 910.984 254.432 913.33C252.086 915.676 250.199 918.787 248.771 922.663C247.343 926.539 246.629 931.231 246.629 936.739C246.629 942.451 247.343 947.296 248.771 951.274C250.199 955.15 252.086 958.312 254.432 960.76C256.88 963.208 259.634 964.993 262.694 966.115C265.754 967.237 268.916 967.798 272.18 967.798C276.566 967.798 280.289 966.982 283.349 965.35C286.511 963.718 288.908 961.678 290.54 959.23V915.166ZM318.835 907.363C323.629 904.813 328.015 902.977 331.993 901.855C336.073 900.733 340.408 900.172 344.998 900.172C348.262 900.172 351.322 900.631 354.178 901.549C357.136 902.467 359.686 903.946 361.828 905.986C364.072 908.026 365.806 910.729 367.03 914.095C368.356 917.359 369.019 921.388 369.019 926.182V973H363.511L361.828 963.514H361.522C358.564 967.084 355.096 969.787 351.118 971.623C347.14 973.357 342.703 974.224 337.807 974.224C334.441 974.224 331.33 973.765 328.474 972.847C325.618 971.827 323.119 970.399 320.977 968.563C318.937 966.727 317.305 964.534 316.081 961.984C314.959 959.332 314.398 956.425 314.398 953.263C314.398 949.489 315.163 946.174 316.693 943.318C318.223 940.462 320.365 938.116 323.119 936.28C325.873 934.342 329.137 932.914 332.911 931.996C336.787 931.078 341.071 930.619 345.763 930.619H361.063V925.876C361.063 918.94 359.533 913.993 356.473 911.035C353.413 908.077 349.435 906.598 344.539 906.598C341.581 906.598 338.164 907.057 334.288 907.975C330.412 908.893 326.281 910.576 321.895 913.024L318.835 907.363ZM361.063 936.892L348.364 937.045C343.774 937.147 339.847 937.657 336.583 938.575C333.319 939.391 330.616 940.513 328.474 941.941C326.434 943.267 324.955 944.899 324.037 946.837C323.119 948.673 322.66 950.662 322.66 952.804C322.66 955.456 323.119 957.751 324.037 959.689C324.955 961.525 326.179 963.055 327.709 964.279C329.239 965.503 331.024 966.421 333.064 967.033C335.206 967.543 337.45 967.798 339.796 967.798C341.632 967.798 343.519 967.594 345.457 967.186C347.395 966.676 349.282 965.962 351.118 965.044C353.056 964.024 354.892 962.8 356.626 961.372C358.36 959.842 359.839 958.006 361.063 955.864V936.892ZM429.102 907.21H404.928V954.334C404.928 959.128 405.999 962.392 408.141 964.126C410.283 965.758 413.241 966.574 417.015 966.574C419.973 966.574 422.727 966.319 425.277 965.809C427.827 965.197 429.969 964.585 431.703 963.973L432.927 969.94C430.887 970.756 428.388 971.47 425.43 972.082C422.472 972.694 419.208 973 415.638 973C409.518 973 404.877 971.572 401.715 968.716C398.553 965.758 396.972 961.321 396.972 955.405V907.21H383.967V901.09H396.972V878.14H404.928V901.09H429.102V907.21ZM501.685 937.045H450.43V939.187C450.43 948.163 452.827 955.201 457.621 960.301C462.517 965.299 469.147 967.798 477.511 967.798C484.141 967.798 490.363 966.676 496.177 964.432L498.013 970.552C495.361 971.674 492.148 972.541 488.374 973.153C484.702 973.867 480.928 974.224 477.052 974.224C472.258 974.224 467.719 973.51 463.435 972.082C459.253 970.654 455.581 968.461 452.419 965.503C449.257 962.443 446.758 958.618 444.922 954.028C443.086 949.336 442.168 943.726 442.168 937.198C442.168 931.588 442.933 926.488 444.463 921.898C445.993 917.308 448.186 913.432 451.042 910.27C453.898 907.006 457.264 904.507 461.14 902.773C465.016 901.039 469.351 900.172 474.145 900.172C478.225 900.172 481.948 900.937 485.314 902.467C488.782 903.895 491.689 905.986 494.035 908.74C496.483 911.494 498.37 914.809 499.696 918.685C501.022 922.561 501.685 926.845 501.685 931.537V937.045ZM493.423 930.619C493.423 927.661 493.066 924.754 492.352 921.898C491.638 918.94 490.465 916.339 488.833 914.095C487.303 911.851 485.263 910.066 482.713 908.74C480.265 907.312 477.256 906.598 473.686 906.598C467.464 906.598 462.262 908.689 458.08 912.871C454 917.053 451.552 922.969 450.736 930.619H493.423Z" fill="#777"/>
<path d="M0 370C0 70 173 0 370 0C567 0 740 70 740 370C740 670 567 740 370 740C173 740 0 670 0 370Z" fill="#FAFA00"/>
<path d="M413.6 545.2C412.2 538.2 411.267 532.367 410.8 527.7C410.8 522.567 410.567 516.733 410.1 510.2C394.233 526.067 377.2 537.733 359 545.2C341.267 552.667 322.833 556.4 303.7 556.4C271.967 556.4 247.467 547.767 230.2 530.5C213.4 513.233 205 492 205 466.8C205 444.4 211.067 425.5 223.2 410.1C235.333 394.233 251.2 381.4 270.8 371.6C290.4 361.333 312.1 353.633 335.9 348.5C359.7 342.9 383.267 339.867 406.6 339.4V300.9C406.6 287.367 404.967 275 401.7 263.8C398.9 252.133 393.533 243.033 385.6 236.5C377.667 229.5 366 226 350.6 226C340.333 226.467 329.833 228.8 319.1 233C308.833 236.733 300.667 242.8 294.6 251.2C298.333 255.4 300.667 260.067 301.6 265.2C302.533 269.867 303 274.067 303 277.8C303 286.2 299.733 295.067 293.2 304.4C286.667 313.267 276.167 317.467 261.7 317C249.1 316.533 239.3 312.1 232.3 303.7C225.767 295.3 222.5 285.267 222.5 273.6C222.5 255.867 228.8 240.467 241.4 227.4C254.467 213.867 271.967 203.367 293.9 195.9C315.833 187.967 340.333 184 367.4 184C407.533 184 438.333 194.5 459.8 215.5C481.267 236.5 491.767 270.1 491.3 316.3C491.3 332.633 491.3 347.567 491.3 361.1C491.3 374.167 491.067 387.467 490.6 401C490.6 414.067 490.6 428.767 490.6 445.1C490.6 452.1 490.367 460.967 489.9 471.7C489.433 481.967 488.733 492.233 487.8 502.5C496.2 501.567 504.6 501.1 513 501.1C521.867 500.633 529.1 500.167 534.7 499.7V545.2H413.6ZM405.9 380.7C391.9 381.633 378.133 383.967 364.6 387.7C351.067 390.967 338.933 395.633 328.2 401.7C317.467 407.767 308.833 415.467 302.3 424.8C296.233 433.667 293.433 443.933 293.9 455.6C294.367 470.067 299.033 480.8 307.9 487.8C316.767 494.333 327.033 497.6 338.7 497.6C352.233 497.6 364.367 494.8 375.1 489.2C386.3 483.6 396.567 476.133 405.9 466.8C405.9 462.133 405.9 457.233 405.9 452.1C405.9 446.967 405.9 441.833 405.9 436.7C405.9 430.167 405.9 422 405.9 412.2C405.9 402.4 405.9 391.9 405.9 380.7Z" fill="white"/>
</svg>
